<svg xmlns="http://www.w3.org/2000/svg" width="204.613" height="58.001" viewBox="0 0 54.137 15.346">
  <path d="M15.082 12.171h-5.028v1.85c1.198.324 1.74.84 1.773.871a.265.265 0 01-.185.454H4.233a.265.265 0 01-.185-.454c.032-.031.575-.547 1.773-.872v-1.849H.794A.795.795 0 010 11.377V.794C0 .356.356 0 .794 0h14.288c.437 0 .793.356.793.794v10.583a.795.795 0 01-.793.794zm-4.371 2.646c-.567-.258-1.472-.53-2.774-.53-1.3 0-2.206.272-2.773.53h5.547zM6.35 13.9c.455-.086.98-.142 1.587-.142.608 0 1.133.056 1.588.142v-1.73H6.35v1.73zM15.346.794a.265.265 0 00-.264-.265H.794a.265.265 0 00-.265.265v10.583c0 .146.119.265.265.265h14.288a.265.265 0 00.264-.265V.794zm-.794 10.318H1.322a.264.264 0 01-.264-.264V1.323c0-.146.119-.265.265-.265h13.23c.145 0 .264.119.264.265v9.525a.265.265 0 01-.265.264zm-.264-9.525h-12.7v8.997h12.7V1.587z"/>
  <g style="line-height:1.25;-inkscape-font-specification:Arial">
    <path d="M4.845 9.886V2.285h1.576q1.706 0 2.476.274 1.106.387 1.726 1.343.625.956.625 2.279 0 1.142-.496 2.01-.491.868-1.282 1.282-.785.413-2.206.413zm.729-.718h.878q1.576 0 2.186-.196.858-.28 1.349-1.003.49-.729.49-1.778 0-1.1-.531-1.88-.533-.781-1.483-1.07-.714-.217-2.352-.217h-.537z" style="-inkscape-font-specification:'Century Gothic'" font-family="Century Gothic" aria-label="D" font-weight="400" font-size="10.583" letter-spacing="0" word-spacing="0" stroke-width=".265"/>
  </g>
  <g aria-label="ISPLAYS" style="line-height:1.25;-inkscape-font-specification:Arial" font-weight="400" font-size="10.583" font-family="Century Gothic" letter-spacing="0" word-spacing="0" stroke-width=".265">
    <path d="M17.437 2.285h.76v7.601h-.76zM19.158 8.47l.645-.387q.683 1.255 1.577 1.255.382 0 .718-.175.336-.181.511-.48.176-.3.176-.636 0-.383-.258-.75-.357-.506-1.302-1.22-.951-.718-1.184-1.038-.403-.537-.403-1.163 0-.496.238-.904.238-.408.666-.64.435-.239.941-.239.537 0 1.002.27.47.263.993.976l-.62.47q-.43-.568-.734-.75-.3-.18-.657-.18-.46 0-.754.279-.29.279-.29.687 0 .248.104.48.103.233.377.507.15.145.982.76.987.729 1.354 1.297.367.568.367 1.142 0 .827-.63 1.437-.626.61-1.525.61-.693 0-1.256-.367-.563-.373-1.038-1.24zM25.209 2.285h1.514q1.302 0 1.757.113.651.16 1.064.662.414.496.414 1.25 0 .76-.403 1.256-.403.491-1.111.662-.517.124-1.933.124h-.543v3.534h-.76zm.76.739v2.583l1.286.016q.78 0 1.142-.14.362-.144.569-.46.206-.32.206-.713 0-.382-.206-.697-.207-.32-.548-.455-.336-.134-1.106-.134zM31.477 2.285h.765v6.867h2.92v.734h-3.685zM39.482 2.285l3.545 7.601h-.817l-1.193-2.5H37.74l-1.188 2.5h-.848l3.592-7.601zm-.093 1.612L38.08 6.65h2.6zM43.61 2.285h.88l1.942 3.131 1.912-3.131h.879l-2.408 3.968v3.633h-.75V6.253zM49.688 8.47l.646-.387q.682 1.255 1.576 1.255.382 0 .718-.175.336-.181.512-.48.176-.3.176-.636 0-.383-.259-.75-.356-.506-1.302-1.22-.95-.718-1.183-1.038-.403-.537-.403-1.163 0-.496.237-.904.238-.408.667-.64.434-.239.94-.239.538 0 1.003.27.47.263.992.976l-.62.47q-.429-.568-.734-.75-.3-.18-.656-.18-.46 0-.755.279-.289.279-.289.687 0 .248.103.48.104.233.378.507.15.145.981.76.987.729 1.354 1.297.367.568.367 1.142 0 .827-.63 1.437-.625.61-1.525.61-.692 0-1.255-.367-.564-.373-1.04-1.24z" style="-inkscape-font-specification:'Century Gothic'"/>
  </g>
</svg>
